<svg xmlns="http://www.w3.org/2000/svg" viewBox="0 0 43.14 43.14"><g data-name="Camada 2"><g data-name="Camada 1"><g data-name="Icon feather-edit"><path class="cls-1" d="M33.33 43.14H5.62A5.62 5.62 0 010 37.52V9.81a5.62 5.62 0 015.62-5.62h13.85a1.66 1.66 0 110 3.32H5.62a2.3 2.3 0 00-2.3 2.3v27.71a2.3 2.3 0 002.3 2.3h27.71a2.31 2.31 0 002.3-2.3V23.66a1.66 1.66 0 113.31 0v13.86a5.62 5.62 0 01-5.61 5.62z" data-name="Caminho 31"/><path class="cls-1" d="M13.53 31.26a1.66 1.66 0 01-1.61-2.06l2-7.92a1.8 1.8 0 01.44-.77l18.78-18.8A5.86 5.86 0 0141.43 10L22.62 28.8a1.75 1.75 0 01-.77.44l-7.91 2a1.44 1.44 0 01-.41.02zM17 22.53l-1.2 4.79 4.78-1.19 18.5-18.48a2.52 2.52 0 000-3.59 2.6 2.6 0 00-3.59 0z" data-name="Caminho 32"/></g></g></g></svg>