<svg xmlns="http://www.w3.org/2000/svg" width="14.857" height="16"><path class="a" d="M13.714 3.714h-3.01a2.1 2.1 0 00.721-1.571A2.2 2.2 0 009.175 0a1.993 1.993 0 00-1.746.979A1.993 1.993 0 005.682 0a2.2 2.2 0 00-2.257 2.143 2.086 2.086 0 00.725 1.571H1.143A1.142 1.142 0 000 4.857v.714a.143.143 0 00.143.143h14.571a.143.143 0 00.143-.143v-.714a1.142 1.142 0 00-1.143-1.143zM9.175 1a1.174 1.174 0 011.2 1.143 1.174 1.174 0 01-1.2 1.143h-1.2C7.971 1.571 8.511 1 9.175 1zM5.682 1c.664 0 1.2.571 1.2 2.286h-1.2a1.174 1.174 0 01-1.2-1.143A1.174 1.174 0 015.682 1zM.571 6.929v7.929a1.146 1.146 0 001.143 1.143h5.214V6.643H.857a.287.287 0 00-.286.286zM14 6.643H7.928V16h5.216a1.146 1.146 0 001.143-1.143V6.929A.287.287 0 0014 6.643z"/></svg>