<svg xmlns="http://www.w3.org/2000/svg" width="14" height="13.999"><path d="M13.596 10.962a11.759 11.759 0 00-2.456-1.644c-.736-.354-1.006-.346-1.527.029-.434.313-.714.6-1.214.5a7.24 7.24 0 01-2.438-1.8 7.188 7.188 0 01-1.8-2.438c-.106-.5.186-.78.5-1.214.375-.521.386-.791.029-1.527A11.527 11.527 0 003.037.404c-.536-.536-.656-.419-.951-.313a5.413 5.413 0 00-.871.463 2.628 2.628 0 00-1.046 1.1c-.208.448-.448 1.283.776 3.462a19.319 19.319 0 003.4 4.53 19.4 19.4 0 004.53 3.4c2.179 1.225 3.014.984 3.462.776a2.583 2.583 0 001.1-1.046 5.413 5.413 0 00.463-.871c.11-.287.235-.407-.304-.943z" fill="#3dd010"/></svg>