<svg xmlns="http://www.w3.org/2000/svg" viewBox="0 0 24.85 25"><g data-name="Camada 2"><path d="M12.51 0a12.49 12.49 0 00-8.8 21.37v.07l.66.56a12.56 12.56 0 006.22 2.85l.49.06.53.05h.95a12.5 12.5 0 0012.28-12.62A12.42 12.42 0 0012.51 0zM10.4 19.52a2.33 2.33 0 00.88-1.1 1.28 1.28 0 00-.58-1.71 1.4 1.4 0 00-.57-.13H7.41a5.69 5.69 0 01-1.16-.24 14.42 14.42 0 002.51-7 3.52 3.52 0 013.59-3.59A3.64 3.64 0 0115.84 8a5.49 5.49 0 01.43 1.94 15.72 15.72 0 002.29 6.64 1.44 1.44 0 01-.63.05H15a1.21 1.21 0 00-1.15.83v.05a1.26 1.26 0 00.4 1.34 5.3 5.3 0 00.54.39l3.35 2a1.37 1.37 0 01.2.13 10.72 10.72 0 01-5.88 1.79h-.7a10.53 10.53 0 01-5.32-1.87zm9.45.65a4 4 0 00-.78-.58l-1.89-1.14h.57a3.12 3.12 0 001.93-.36 1.72 1.72 0 00.77-1.09 1.74 1.74 0 00-.21-1.33 13.92 13.92 0 01-2.11-5.94 7.29 7.29 0 00-.58-2.56 5.41 5.41 0 00-5.22-3.36c-5.28 0-5.44 5.37-5.44 5.39a12.78 12.78 0 01-2.45 6.41A1.51 1.51 0 004.17 17a1.59 1.59 0 001 1 8.24 8.24 0 002.15.51h.83l-2.62 1.07a3.92 3.92 0 00-.59.37 10.62 10.62 0 0114.8-15.24 10.63 10.63 0 01.54 15zM12.5 24.5z" fill="#3dd010" data-name="Camada 1"/></g></svg>