<svg xmlns="http://www.w3.org/2000/svg" viewBox="0 0 331.3 334.39"><g data-name="Camada 2"><g data-name="Camada 1"><path d="M253.87 25.55C225.13 6.44 192.68-1.77 158.32.32 98.43 4 53 32.22 22.09 83.6 9.53 104.51 2.81 127.49.65 151.79c-.05.62.07 1.33-.65 1.71v24.81c1.54 3.65 1.23 7.61 1.79 11.41A162.38 162.38 0 0016.66 238a9.48 9.48 0 01.79 6.54Q9.31 283.77 1.24 323c-.24 1.2-.13 2.61-1.24 3.55v2.61c1.37 2.12 2.66 4.31 5.22 5.23h3.92c7.37-2.65 15.09-3.9 22.66-5.74 18.8-4.57 37.66-8.86 56.46-13.42a10.52 10.52 0 017.48.81 158.31 158.31 0 0071.71 15.57c49.94-1 91.51-20.57 124.32-58.17 21.45-24.57 34.88-53.29 38.31-85.68 7.32-69.15-18.25-123.69-76.21-162.21zm-10.52 244.29c-19.15 14.64-40.95 22.83-64.81 25.2-25 2.49-49.13-1.68-71.39-13.57-7.67-4.1-14.55-4.84-22.77-2.44-11.66 3.41-23.64 5.76-35.49 8.55-3.59.85-3.78.68-3-2.95 3.09-15 6.15-30 9.35-45a9.26 9.26 0 00-.94-6.84c-7.38-13.53-13.28-27.61-16-42.89-4.71-26.43-1.9-52 9-76.57C59.09 86.55 78.06 66.1 103.68 52a130 130 0 01132.53 4.79 128.88 128.88 0 0145.67 50.86c9.23 18.28 13.6 37.74 13.8 62.88-1.3 38.11-18.09 73.13-52.33 99.31z"/><path d="M245.5 201.64c-10.09-3.06-20.24-5.88-30.37-8.8-5.33-1.54-9.85-.19-13.66 3.79-2.11 2.2-4.23 4.39-6.42 6.5-4.7 4.53-9.38 5.17-15.19 2.3A101.1 101.1 0 01161.13 193c-12.3-9.93-24.12-20.37-33.27-33.43-3.91-5.58-3.78-10.43.3-15.9 1.88-2.53 3.85-5 5.76-7.5a12 12 0 001.74-12.62c-4.41-10.29-8.83-20.59-13.64-30.7-3.63-7.61-12.58-9.15-19-3.65-2.09 1.87-4.14 3.8-6.16 5.8-11.15 10.86-16.37 23.74-14.09 39.5a81.93 81.93 0 0011 31.17c17.84 29.41 42.37 52 72.22 68.73a91.25 91.25 0 0045.92 12.11c11.11.63 23-4 32.35-14.86a114.21 114.21 0 008-10.68c5.37-7.91 2.42-16.55-6.76-19.33z"/></g></g></svg>