<svg xmlns="http://www.w3.org/2000/svg" viewBox="0 0 23 21.63"><g data-name="Camada 2"><path d="M23 6.55C22.61 2.75 19.9 0 16.51 0a6.43 6.43 0 00-5.06 2.52A6.23 6.23 0 006.49 0C3.1 0 .38 2.76 0 6.55A6.74 6.74 0 00.24 9a10.37 10.37 0 003.19 5.33l8 7.26 8.14-7.26a10.38 10.38 0 003.19-5.32A6.81 6.81 0 0023 6.55zm-11.56 12.6L4.67 13A8.61 8.61 0 012 8.59a5 5 0 01-.16-1.85c.26-2.84 2.2-4.89 4.61-4.89a4.43 4.43 0 014.1 2.87l.85 2 .86-2a4.59 4.59 0 014.22-2.87c2.42 0 4.36 2.07 4.62 4.93a5 5 0 01-.1 1.81A8.55 8.55 0 0118.33 13z" fill="#3dd010" data-name="Camada 1"/></g></svg>