<svg class="svg-sprites" id="skin-sprite" xmlns="http://www.w3.org/2000/svg" xmlns:xlink="http://www.w3.org/1999/xlink">
    <symbol viewBox="0 0 12 15.009" id="z-bell" xmlns="http://www.w3.org/2000/svg"><path class="aa" d="M5.992 15.009a1.768 1.768 0 001.8-1.988H4.18a1.769 1.769 0 001.812 1.988zm5.856-3.894c-.578-.761-1.714-1.208-1.714-4.618 0-3.5-1.546-4.907-2.986-5.244-.135-.034-.233-.079-.233-.221V.923a.915.915 0 10-1.831 0v.109c0 .139-.1.188-.233.221-1.444.341-2.986 1.744-2.986 5.244 0 3.41-1.137 3.853-1.714 4.618a.745.745 0 00.6 1.193h10.504a.745.745 0 00.593-1.193z"/></symbol>
    <symbol viewBox="0 0 16 12" id="z-boleto" xmlns="http://www.w3.org/2000/svg"><path d="M0 0h2v10H0zm3 0h1v10H3zm2 0h1v10H5zm3 0h1v10H8zm4 0h1v10h-1zm3 0h1v10h-1zm-5 0h.5v10H10zM7 0h.5v10H7zm6.5 0h.5v10h-.5zM0 11h1v1H0zm3 0h1v1H3zm2 0h1v1H5zm5 0h1v1h-1zm5 0h1v1h-1zm-3 0h2v1h-2zm-5 0h2v1H7z" fill="#3dd010"/></symbol>
    <symbol viewBox="0 0 16 11.429" id="z-card" xmlns="http://www.w3.org/2000/svg"><path class="ca" d="M16 1.143A1.146 1.146 0 0014.857 0H1.143A1.146 1.146 0 000 1.143v1.714h16zM0 10.285a1.146 1.146 0 001.143 1.143h13.714A1.146 1.146 0 0016 10.285V4.571H0zm5.071-1.714h5.857a.5.5 0 01.5.5.5.5 0 01-.5.5H5.071a.5.5 0 01-.5-.5.5.5 0 01.5-.5zm-2.571 0h.429a.5.5 0 01.5.5.5.5 0 01-.5.5H2.5a.5.5 0 01-.5-.5.5.5 0 01.5-.5z"/></symbol>
    <symbol viewBox="0 0 512 512" id="z-cart" xmlns="http://www.w3.org/2000/svg"><path d="M447.988 139.696A4 4 0 00444 136h-72v-20C372 52.036 319.96 0 256 0S140 52.036 140 116v20H68a4 4 0 00-3.988 3.696l-28 368a3.988 3.988 0 001.056 3.02A3.988 3.988 0 0040 512h432a4 4 0 003.988-4.3l-28-368.004zM172 116c0-46.316 37.68-84 84-84s84 37.684 84 84v20H172v-20zm-16 132c-22.06 0-40-17.944-40-40 0-15.964 8-30.348 24-36.66V208c0 8.824 7.18 16 16 16s16-7.176 16-16v-36.636c16 6.312 24 20.804 24 36.636 0 22.056-17.94 40-40 40zm200 0c-22.06 0-40-17.944-40-40 0-15.964 8-30.348 24-36.66V208c0 8.824 7.18 16 16 16s16-7.176 16-16v-36.636c16 6.312 24 20.804 24 36.636 0 22.056-17.94 40-40 40z"/></symbol>
    <symbol viewBox="0 0 13.426 13.423" id="z-close" xmlns="http://www.w3.org/2000/svg"><path d="M8.304 6.711l4.8-4.8A1.124 1.124 0 0011.515.327l-4.8 4.8-4.8-4.8A1.124 1.124 0 10.331 1.911l4.8 4.8-4.8 4.8a1.124 1.124 0 001.584 1.584l4.8-4.8 4.8 4.8a1.124 1.124 0 101.584-1.584z"/></symbol>
    <symbol viewBox="0 0 12 7" id="z-down" xmlns="http://www.w3.org/2000/svg"><g data-name="Camada 2"><g data-name="Camada 1"><path d="M6 7a1 1 0 01-.71-.29l-5-5A1 1 0 011.71.29L6 4.59l4.29-4.3a1 1 0 111.42 1.42l-5 5A1 1 0 016 7z" fill="#fff" data-name="Icon feather-chevron-down"/></g></g></symbol>
    <symbol viewBox="0 0 43.14 43.14" id="z-edit" xmlns="http://www.w3.org/2000/svg"><g data-name="Camada 2"><g data-name="Camada 1"><g data-name="Icon feather-edit"><path class="gcls-1" d="M33.33 43.14H5.62A5.62 5.62 0 010 37.52V9.81a5.62 5.62 0 015.62-5.62h13.85a1.66 1.66 0 110 3.32H5.62a2.3 2.3 0 00-2.3 2.3v27.71a2.3 2.3 0 002.3 2.3h27.71a2.31 2.31 0 002.3-2.3V23.66a1.66 1.66 0 113.31 0v13.86a5.62 5.62 0 01-5.61 5.62z" data-name="Caminho 31"/><path class="gcls-1" d="M13.53 31.26a1.66 1.66 0 01-1.61-2.06l2-7.92a1.8 1.8 0 01.44-.77l18.78-18.8A5.86 5.86 0 0141.43 10L22.62 28.8a1.75 1.75 0 01-.77.44l-7.91 2a1.44 1.44 0 01-.41.02zM17 22.53l-1.2 4.79 4.78-1.19 18.5-18.48a2.52 2.52 0 000-3.59 2.6 2.6 0 00-3.59 0z" data-name="Caminho 32"/></g></g></g></symbol>
    <symbol viewBox="0 0 14.857 16" id="z-gift" xmlns="http://www.w3.org/2000/svg"><path class="ha" d="M13.714 3.714h-3.01a2.1 2.1 0 00.721-1.571A2.2 2.2 0 009.175 0a1.993 1.993 0 00-1.746.979A1.993 1.993 0 005.682 0a2.2 2.2 0 00-2.257 2.143 2.086 2.086 0 00.725 1.571H1.143A1.142 1.142 0 000 4.857v.714a.143.143 0 00.143.143h14.571a.143.143 0 00.143-.143v-.714a1.142 1.142 0 00-1.143-1.143zM9.175 1a1.174 1.174 0 011.2 1.143 1.174 1.174 0 01-1.2 1.143h-1.2C7.971 1.571 8.511 1 9.175 1zM5.682 1c.664 0 1.2.571 1.2 2.286h-1.2a1.174 1.174 0 01-1.2-1.143A1.174 1.174 0 015.682 1zM.571 6.929v7.929a1.146 1.146 0 001.143 1.143h5.214V6.643H.857a.287.287 0 00-.286.286zM14 6.643H7.928V16h5.216a1.146 1.146 0 001.143-1.143V6.929A.287.287 0 0014 6.643z"/></symbol>
    <symbol viewBox="0 0 11.2 16" id="z-map" xmlns="http://www.w3.org/2000/svg"><path d="M5.6 0A5.6 5.6 0 000 5.6C0 9.8 5.6 16 5.6 16s5.6-6.2 5.6-10.4A5.6 5.6 0 005.6 0zm0 7.6a2 2 0 112-2 2 2 0 01-2 2z" fill="#3dd010"/></symbol>
    <symbol viewBox="0 0 19.62 19.62" id="z-menu" xmlns="http://www.w3.org/2000/svg"><g data-name="Camada 2"><g data-name="Camada 1"><path class="jcls-1" d="M9.81 0a9.81 9.81 0 109.81 9.81A9.82 9.82 0 009.81 0zM18 9.81a8.14 8.14 0 11-8.19-8.14A8.16 8.16 0 0118 9.81z"/><path class="jcls-1" d="M13.8 5.32h-8A.83.83 0 005.82 7h8a.83.83 0 000-1.66zm0 3.68h-8a.83.83 0 000 1.66h8a.83.83 0 000-1.66zm0 3.63h-8a.84.84 0 000 1.67h8a.84.84 0 000-1.67z"/></g></g></symbol>
    <symbol viewBox="0 0 14 14" id="z-more" xmlns="http://www.w3.org/2000/svg"><path d="M13 5.5H8.5V1a1 1 0 00-1-1h-1a1 1 0 00-1 1v4.5H1a1 1 0 00-1 1v1a1 1 0 001 1h4.5V13a1 1 0 001 1h1a1 1 0 001-1V8.5H13a1 1 0 001-1v-1a1 1 0 00-1-1z" fill="#fff"/></symbol>
    <symbol viewBox="0 0 6.861 12" id="z-next" xmlns="http://www.w3.org/2000/svg"><path data-name="Icon ionic-ios-arrow-forward" d="M4.793 5.998L.254 1.461a.854.854 0 010-1.211.865.865 0 011.215 0l5.145 5.141a.856.856 0 01.025 1.183l-5.166 5.177a.86.86 0 11-1.219-1.212z" fill="#fff"/></symbol>
    <symbol viewBox="0 0 14 13.999" id="z-phone" xmlns="http://www.w3.org/2000/svg"><path d="M13.596 10.962a11.759 11.759 0 00-2.456-1.644c-.736-.354-1.006-.346-1.527.029-.434.313-.714.6-1.214.5a7.24 7.24 0 01-2.438-1.8 7.188 7.188 0 01-1.8-2.438c-.106-.5.186-.78.5-1.214.375-.521.386-.791.029-1.527A11.527 11.527 0 003.037.404c-.536-.536-.656-.419-.951-.313a5.413 5.413 0 00-.871.463 2.628 2.628 0 00-1.046 1.1c-.208.448-.448 1.283.776 3.462a19.319 19.319 0 003.4 4.53 19.4 19.4 0 004.53 3.4c2.179 1.225 3.014.984 3.462.776a2.583 2.583 0 001.1-1.046 5.413 5.413 0 00.463-.871c.11-.287.235-.407-.304-.943z" fill="#3dd010"/></symbol>
    <symbol viewBox="0 0 8.663 15.154" id="z-prev" xmlns="http://www.w3.org/2000/svg"><path data-name="Icon ionic-ios-arrow-back" d="M2.611 7.574l5.738-5.729A1.084 1.084 0 106.811.316L.315 6.806a1.081 1.081 0 00-.032 1.493l6.523 6.537a1.083 1.083 0 001.534-1.53z" fill="#fff"/></symbol>
    <symbol viewBox="0 0 28.14 27.85" id="z-search" xmlns="http://www.w3.org/2000/svg"><g data-name="Camada 2"><path d="M28.14 25.78L18.72 17a10.57 10.57 0 10-2 2l9.54 8.87zM2 10.5a8.5 8.5 0 118.5 8.5A8.51 8.51 0 012 10.5z" data-name="Camada 1"/></g></symbol>
    <symbol viewBox="0 0 14 14" id="z-timer" xmlns="http://www.w3.org/2000/svg"><path class="pa" d="M6.993 0A7 7 0 1014 7a7 7 0 00-7.007-7zM7 12.6A5.6 5.6 0 1112.6 7 5.6 5.6 0 017 12.6z"/><path class="pa" d="M7.35 3.501H6.3v4.2l3.675 2.2.525-.862-3.15-1.868z"/></symbol>
    <symbol viewBox="0 0 16 12.8" id="z-truck" xmlns="http://www.w3.org/2000/svg"><path d="M15.6 8.8h-.4V6.1a1.2 1.2 0 00-.352-.847l-2.5-2.5A1.2 1.2 0 0011.5 2.4h-1.1V1.2A1.2 1.2 0 009.2 0h-8A1.2 1.2 0 000 1.2v8a1.2 1.2 0 001.2 1.2h.4a2.4 2.4 0 104.8 0h3.2a2.4 2.4 0 104.8 0h1.2a.4.4 0 00.4-.4v-.8a.4.4 0 00-.4-.4zM4 11.6a1.2 1.2 0 111.2-1.2A1.2 1.2 0 014 11.6zm8 0a1.2 1.2 0 111.2-1.2 1.2 1.2 0 01-1.2 1.2zm2-5.2h-3.6V3.6h1.1L14 6.1z" fill="#3dd010"/></symbol>
    <symbol viewBox="0 0 24.85 25" id="z-user" xmlns="http://www.w3.org/2000/svg"><g data-name="Camada 2"><path d="M12.51 0a12.49 12.49 0 00-8.8 21.37v.07l.66.56a12.56 12.56 0 006.22 2.85l.49.06.53.05h.95a12.5 12.5 0 0012.28-12.62A12.42 12.42 0 0012.51 0zM10.4 19.52a2.33 2.33 0 00.88-1.1 1.28 1.28 0 00-.58-1.71 1.4 1.4 0 00-.57-.13H7.41a5.69 5.69 0 01-1.16-.24 14.42 14.42 0 002.51-7 3.52 3.52 0 013.59-3.59A3.64 3.64 0 0115.84 8a5.49 5.49 0 01.43 1.94 15.72 15.72 0 002.29 6.64 1.44 1.44 0 01-.63.05H15a1.21 1.21 0 00-1.15.83v.05a1.26 1.26 0 00.4 1.34 5.3 5.3 0 00.54.39l3.35 2a1.37 1.37 0 01.2.13 10.72 10.72 0 01-5.88 1.79h-.7a10.53 10.53 0 01-5.32-1.87zm9.45.65a4 4 0 00-.78-.58l-1.89-1.14h.57a3.12 3.12 0 001.93-.36 1.72 1.72 0 00.77-1.09 1.74 1.74 0 00-.21-1.33 13.92 13.92 0 01-2.11-5.94 7.29 7.29 0 00-.58-2.56 5.41 5.41 0 00-5.22-3.36c-5.28 0-5.44 5.37-5.44 5.39a12.78 12.78 0 01-2.45 6.41A1.51 1.51 0 004.17 17a1.59 1.59 0 001 1 8.24 8.24 0 002.15.51h.83l-2.62 1.07a3.92 3.92 0 00-.59.37 10.62 10.62 0 0114.8-15.24 10.63 10.63 0 01.54 15zM12.5 24.5z" fill="#3dd010" data-name="Camada 1"/></g></symbol>
    <symbol viewBox="0 0 16 16" id="z-whatsapp" xmlns="http://www.w3.org/2000/svg"><path d="M8.15 0A7.824 7.824 0 00.295 7.794a7.713 7.713 0 001.127 4.025L0 16l4.35-1.381A7.868 7.868 0 0016 7.794 7.824 7.824 0 008.15 0zm3.9 10.75a2.029 2.029 0 01-1.389.9c-.368.02-.379.286-2.387-.587a8.2 8.2 0 01-3.311-3.131 3.852 3.852 0 01-.741-2.088 2.226 2.226 0 01.764-1.633.769.769 0 01.544-.229h.378c.117 0 .293-.024.445.38s.516 1.4.562 1.5a.364.364 0 010 .349 1.364 1.364 0 01-.213.324c-.1.112-.22.252-.314.337s-.213.2-.1.4A6.011 6.011 0 007.35 8.693 5.48 5.48 0 008.925 9.74c.2.107.314.1.437-.033s.523-.562.664-.756.274-.156.455-.083 1.148.591 1.345.7.328.162.375.246a1.649 1.649 0 01-.151.936z" fill="#3dd010"/></symbol>
    <symbol viewBox="0 0 331.3 334.39" id="z-whatsapp-mobile" xmlns="http://www.w3.org/2000/svg"><g data-name="Camada 2"><g data-name="Camada 1"><path d="M253.87 25.55C225.13 6.44 192.68-1.77 158.32.32 98.43 4 53 32.22 22.09 83.6 9.53 104.51 2.81 127.49.65 151.79c-.05.62.07 1.33-.65 1.71v24.81c1.54 3.65 1.23 7.61 1.79 11.41A162.38 162.38 0 0016.66 238a9.48 9.48 0 01.79 6.54Q9.31 283.77 1.24 323c-.24 1.2-.13 2.61-1.24 3.55v2.61c1.37 2.12 2.66 4.31 5.22 5.23h3.92c7.37-2.65 15.09-3.9 22.66-5.74 18.8-4.57 37.66-8.86 56.46-13.42a10.52 10.52 0 017.48.81 158.31 158.31 0 0071.71 15.57c49.94-1 91.51-20.57 124.32-58.17 21.45-24.57 34.88-53.29 38.31-85.68 7.32-69.15-18.25-123.69-76.21-162.21zm-10.52 244.29c-19.15 14.64-40.95 22.83-64.81 25.2-25 2.49-49.13-1.68-71.39-13.57-7.67-4.1-14.55-4.84-22.77-2.44-11.66 3.41-23.64 5.76-35.49 8.55-3.59.85-3.78.68-3-2.95 3.09-15 6.15-30 9.35-45a9.26 9.26 0 00-.94-6.84c-7.38-13.53-13.28-27.61-16-42.89-4.71-26.43-1.9-52 9-76.57C59.09 86.55 78.06 66.1 103.68 52a130 130 0 01132.53 4.79 128.88 128.88 0 0145.67 50.86c9.23 18.28 13.6 37.74 13.8 62.88-1.3 38.11-18.09 73.13-52.33 99.31z"/><path d="M245.5 201.64c-10.09-3.06-20.24-5.88-30.37-8.8-5.33-1.54-9.85-.19-13.66 3.79-2.11 2.2-4.23 4.39-6.42 6.5-4.7 4.53-9.38 5.17-15.19 2.3A101.1 101.1 0 01161.13 193c-12.3-9.93-24.12-20.37-33.27-33.43-3.91-5.58-3.78-10.43.3-15.9 1.88-2.53 3.85-5 5.76-7.5a12 12 0 001.74-12.62c-4.41-10.29-8.83-20.59-13.64-30.7-3.63-7.61-12.58-9.15-19-3.65-2.09 1.87-4.14 3.8-6.16 5.8-11.15 10.86-16.37 23.74-14.09 39.5a81.93 81.93 0 0011 31.17c17.84 29.41 42.37 52 72.22 68.73a91.25 91.25 0 0045.92 12.11c11.11.63 23-4 32.35-14.86a114.21 114.21 0 008-10.68c5.37-7.91 2.42-16.55-6.76-19.33z"/></g></g></symbol>
    <symbol viewBox="0 0 23 21.63" id="z-wishlist" xmlns="http://www.w3.org/2000/svg"><g data-name="Camada 2"><path d="M23 6.55C22.61 2.75 19.9 0 16.51 0a6.43 6.43 0 00-5.06 2.52A6.23 6.23 0 006.49 0C3.1 0 .38 2.76 0 6.55A6.74 6.74 0 00.24 9a10.37 10.37 0 003.19 5.33l8 7.26 8.14-7.26a10.38 10.38 0 003.19-5.32A6.81 6.81 0 0023 6.55zm-11.56 12.6L4.67 13A8.61 8.61 0 012 8.59a5 5 0 01-.16-1.85c.26-2.84 2.2-4.89 4.61-4.89a4.43 4.43 0 014.1 2.87l.85 2 .86-2a4.59 4.59 0 014.22-2.87c2.42 0 4.36 2.07 4.62 4.93a5 5 0 01-.1 1.81A8.55 8.55 0 0118.33 13z" fill="#3dd010" data-name="Camada 1"/></g></symbol>
</svg>